<?xml version="1.0" encoding="iso-8859-1"?>
<!-- Generator: Adobe Illustrator 19.0.0, SVG Export Plug-In . SVG Version: 6.00 Build 0)  -->
<svg version="1.1" id="Layer_1" xmlns="http://www.w3.org/2000/svg" xmlns:xlink="http://www.w3.org/1999/xlink" x="0px" y="0px"
	 viewBox="0 0 512.001 512.001" style="enable-background:new 0 0 512.001 512.001;" xml:space="preserve">
<g>
	<g>
		<path d="M512,139.659l-20.479-54.923l18.722-9.565L436.829,1.755l-9.565,18.722L372.341,0l-1.37,78.86
			c-17.899-7.986-38.194-12.107-60.236-12.107c-27.727,0-57.458,6.773-85.982,19.587c-29.721,13.352-57.154,32.486-81.539,56.87
			c-40.258,40.258-66.625,89.71-74.246,139.247c-5.035,32.734-1.521,62.983,9.893,88.513L0,372.342l20.477,54.923l-18.721,9.564
			l73.414,73.415l9.564-18.72l54.923,20.477l1.372-78.864c17.899,7.987,38.196,12.109,60.239,12.109
			c27.726,0,57.458-6.773,85.981-19.588c29.721-13.351,57.155-32.486,81.54-56.87c40.256-40.258,66.625-89.71,74.246-139.247
			c5.036-32.732,1.522-62.982-9.891-88.511L512,139.659z M425.147,125.952c-1.154-1.853-2.365-3.668-3.616-5.457l56.352-28.788
			l12.347,33.114L425.147,125.952z M440.861,27.305l43.833,43.835l-61.445,31.393l-11.405,5.826
			c-0.177-0.195-0.358-0.383-0.536-0.576c-0.357-0.387-0.713-0.775-1.075-1.158c-0.769-0.815-1.544-1.62-2.327-2.404
			c-0.02-0.021-0.041-0.043-0.061-0.064c-0.105-0.105-0.214-0.207-0.321-0.312c-0.594-0.589-1.194-1.178-1.805-1.758
			c-0.624-0.594-1.256-1.177-1.891-1.757c-0.063-0.057-0.123-0.115-0.186-0.171l9.717-19.021L440.861,27.305z M387.18,21.77
			l33.117,12.347L391.51,90.468c-1.786-1.249-3.607-2.451-5.46-3.604L387.18,21.77z M86.859,386.048
			c1.154,1.853,2.366,3.668,3.617,5.457l-50.969,26.039l-5.39,2.754L21.77,387.18L86.859,386.048z M71.14,484.695l-43.835-43.833
			l2.32-1.185l70.538-36.036c0.185,0.203,0.373,0.399,0.559,0.601c0.348,0.376,0.695,0.755,1.048,1.127
			c0.771,0.818,1.547,1.625,2.332,2.411c0.02,0.02,0.039,0.041,0.059,0.061c0.098,0.098,0.199,0.192,0.297,0.29
			c0.603,0.598,1.213,1.196,1.835,1.787c0.604,0.574,1.216,1.139,1.831,1.7c0.08,0.073,0.156,0.148,0.236,0.22L71.14,484.695z
			 M124.82,490.23l-33.117-12.346l28.79-56.355c1.786,1.248,3.606,2.45,5.459,3.603L124.82,490.23z M248.395,423.431
			c-15.864,4.318-31.727,6.598-47.125,6.598c-10.662,0.001-20.849-1.066-30.473-3.154l0.001-61.665h-15.214l-0.001,57.349
			c-5.749-2.046-11.245-4.508-16.466-7.369l-1.712-0.977c-5.19-2.959-10.146-6.364-14.732-10.122l-0.034-0.027
			c-1.34-1.097-2.652-2.226-3.928-3.381c-0.098-0.088-0.194-0.18-0.292-0.269c-0.538-0.489-1.07-0.981-1.594-1.478
			c-0.642-0.611-1.279-1.228-1.907-1.856c-0.001-0.002-0.002-0.003-0.004-0.004c-0.722-0.723-1.427-1.459-2.126-2.199
			c-0.307-0.327-0.613-0.657-0.917-0.99c-0.36-0.392-0.716-0.786-1.07-1.184c-0.384-0.432-0.771-0.862-1.149-1.301
			c-0.15-0.173-0.295-0.351-0.444-0.525c-0.431-0.506-0.862-1.013-1.284-1.529l-0.019-0.023c-3.751-4.579-7.156-9.534-10.121-14.733
			l-0.801-1.406c-13.527-24.482-18.129-54.926-12.976-88.419c7.133-46.364,31.98-92.816,69.966-130.802
			c0.531-0.531,1.074-1.048,1.61-1.575v192.53h15.214V138.514c23.875-20.163,50.516-35.578,77.598-45.182V423.431z M341.209,373.482
			c-23.876,20.164-50.517,35.579-77.599,45.183v-330.1c15.864-4.318,31.727-6.598,47.125-6.598c10.662,0,20.849,1.067,30.474,3.154
			V373.482z M427.998,227.226c-7.133,46.364-31.98,92.816-69.965,130.802c-0.531,0.531-1.074,1.048-1.609,1.574V89.438
			c5.82,2.07,11.378,4.568,16.658,7.474l1.515,0.865c5.193,2.963,10.15,6.368,14.734,10.122c1.353,1.109,2.678,2.25,3.965,3.413
			c0.084,0.076,0.166,0.154,0.25,0.23c0.555,0.505,1.106,1.013,1.645,1.527c0.639,0.608,1.272,1.222,1.898,1.847
			c0.001,0.001,0.003,0.002,0.003,0.004c0.721,0.721,1.425,1.457,2.124,2.195c0.307,0.327,0.613,0.658,0.918,0.991
			c0.364,0.397,0.723,0.794,1.08,1.196c0.377,0.423,0.756,0.846,1.127,1.277c0.197,0.228,0.388,0.461,0.583,0.691
			c0.386,0.455,0.774,0.91,1.153,1.373l0.025,0.03c3.745,4.569,7.15,9.527,10.122,14.734l0.718,1.259
			C428.531,163.17,433.161,193.669,427.998,227.226z"/>
	</g>
</g>
<g>
	<g>
		<path d="M393.737,241.971c-4.013,14.427-10.002,28.829-17.804,42.807l13.285,7.414c8.39-15.03,14.842-30.557,19.177-46.147
			L393.737,241.971z"/>
	</g>
</g>
<g>
	<g>
		<path d="M386.33,125.673l-10.759,10.76c19.901,19.901,27.838,50.502,22.35,86.175l-0.062,0.402l15.032,2.349l0.069-0.445
			C419.203,184.334,409.746,149.09,386.33,125.673z"/>
	</g>
</g>
<g>
</g>
<g>
</g>
<g>
</g>
<g>
</g>
<g>
</g>
<g>
</g>
<g>
</g>
<g>
</g>
<g>
</g>
<g>
</g>
<g>
</g>
<g>
</g>
<g>
</g>
<g>
</g>
<g>
</g>
</svg>
