<?xml version="1.0" ?><svg width="128px" height="128px" viewBox="0 0 128 128" id="Layer_1" style="enable-background:new 0 0 128 128;" version="1.1" xml:space="preserve" xmlns="http://www.w3.org/2000/svg" xmlns:xlink="http://www.w3.org/1999/xlink"><path d="M103.68,103.474C113.76,93.342,120,79.387,120,64c0-30.878-25.121-56-56-56c-15.387,0-29.342,6.24-39.473,16.319  c-0.041,0.03-0.088,0.046-0.124,0.083s-0.053,0.084-0.083,0.124C14.24,34.658,8,48.613,8,64c0,30.878,25.121,56,56,56  c15.387,0,29.342-6.24,39.473-16.319c0.041-0.03,0.088-0.046,0.124-0.083S103.65,103.514,103.68,103.474z M118,64  c0,14.529-5.778,27.726-15.144,37.442L79.589,78.175c0.836-1.854,1.239-3.534,1.394-4.326l2.137-1.325  c0.47-0.291,0.614-0.907,0.323-1.377c-0.29-0.469-0.906-0.614-1.376-0.323l-2.148,1.331c-1.042-0.253-3.776-0.79-6.768-0.418  l-1.732-1.732c1.086-0.219,2.115-0.587,3.069-1.147c4.687-2.75,6.163-8.715,6.497-10.425l2.135-1.324  c0.469-0.291,0.613-0.908,0.322-1.377c-0.292-0.469-0.906-0.614-1.377-0.323l-2.161,1.34c-1.694-0.41-7.728-1.558-12.184,1.552  c-1.072,0.748-1.966,1.682-2.682,2.796V54.16c1.481,0.441,2.888,0.668,4.214,0.668c1.92,0,3.673-0.462,5.242-1.387  c4.658-2.745,6.141-8.668,6.48-10.391l2.145-1.329c0.47-0.291,0.614-0.907,0.323-1.377c-0.29-0.469-0.906-0.614-1.376-0.323  l-2.159,1.338c-1.664-0.405-7.609-1.548-12.051,1.446c-1.14,0.768-2.073,1.754-2.818,2.923v-3.431  c3.386-2.523,5.214-5.467,5.397-8.765c0.304-5.447-3.958-10.023-5.216-11.25V16.28c0-0.552-0.447-1-1-1s-1,0.448-1,1v5.99  c-1.264,1.18-5.434,5.485-5.321,10.857c0.07,3.359,1.811,6.43,5.14,9.142v3.581c-0.47-0.755-1.012-1.436-1.644-2.02  c-0.038-0.051-0.081-0.099-0.129-0.142c-4.493-4.086-11.366-2.769-13.174-2.329l-2.16-1.339c-0.47-0.291-1.087-0.146-1.376,0.323  c-0.291,0.47-0.146,1.086,0.323,1.377l2.144,1.329c0.137,0.696,0.464,2.083,1.112,3.673L26.558,25.144  C36.274,15.778,49.471,10,64,10C93.775,10,118,34.224,118,64z M64.207,24.107c1.377,1.445,4.464,5.166,4.233,9.313  c-0.146,2.608-1.627,4.992-4.372,7.104c-2.697-2.271-4.11-4.766-4.168-7.43C59.809,29.014,62.838,25.489,64.207,24.107z   M65.161,66.575l1.292,1.292c-0.458-0.109-0.927-0.244-1.406-0.405C65.08,67.161,65.115,66.862,65.161,66.575z M65.714,64.3  c0.652-1.887,1.702-3.345,3.144-4.354c3.38-2.365,8.104-1.754,10.046-1.364c-0.452,1.924-1.86,6.459-5.427,8.552  c-1.145,0.672-2.435,1.024-3.85,1.078L65.714,64.3z M49.106,43.187c2.07-0.416,7.301-1.083,10.691,1.869  c0.039,0.052,0.084,0.101,0.134,0.145c1.683,1.493,2.689,3.805,3.013,6.86c-3.34,1.118-6.196,1.001-8.486-0.373  C50.958,49.588,49.559,45.099,49.106,43.187z M58.727,54.828c1.35,0,2.793-0.243,4.313-0.702v7.104  c-0.728-1.17-1.643-2.153-2.756-2.93c-0.435-0.304-0.889-0.554-1.349-0.781l-3.077-3.077C56.766,54.696,57.721,54.828,58.727,54.828  z M61.886,63.3c0.547,1.183,0.899,2.579,1.07,4.163c-3.309,1.107-6.143,1.009-8.42-0.325c-3.561-2.084-4.978-6.632-5.434-8.559  c1.688-0.341,5.471-0.839,8.663,0.599L61.886,63.3z M68.797,70.211l2.013,2.013c-1.064,0.325-2.115,0.799-3.089,1.479  c-1.072,0.748-1.966,1.682-2.682,2.796v-6.93C66.354,69.962,67.605,70.167,68.797,70.211z M68.858,75.349  c1.104-0.773,2.353-1.225,3.602-1.474l4.691,4.691c-0.846,1.513-2.028,3.003-3.675,3.97c-2.279,1.337-5.117,1.437-8.429,0.329  C65.423,79.397,66.695,76.862,68.858,75.349z M75.03,73.616c1.605-0.02,3.01,0.195,3.874,0.368  c-0.154,0.654-0.419,1.603-0.842,2.664L75.03,73.616z M65.058,52.06c0.37-3.532,1.683-6.088,3.91-7.592  c3.363-2.273,8.004-1.667,9.925-1.28c-0.458,1.923-1.875,6.45-5.422,8.534C71.197,53.06,68.364,53.162,65.058,52.06z M10,64  c0-14.529,5.778-27.726,15.144-37.442l29.785,29.785c-3.013-0.39-5.775,0.151-6.833,0.407l-2.162-1.34  c-0.47-0.291-1.086-0.146-1.377,0.323s-0.146,1.086,0.322,1.377l2.14,1.327c0.336,1.713,1.812,7.674,6.497,10.422  c1.564,0.919,3.312,1.378,5.226,1.378c1.35,0,2.786-0.235,4.298-0.692v7.089c-0.728-1.17-1.643-2.153-2.756-2.93  c-4.468-3.119-10.529-1.954-12.202-1.548l-2.149-1.332c-0.47-0.291-1.087-0.146-1.376,0.323c-0.291,0.47-0.146,1.086,0.323,1.377  l2.142,1.327c0.34,1.728,1.82,7.667,6.493,10.41c1.565,0.918,3.313,1.378,5.227,1.378c1.35,0,2.786-0.235,4.298-0.692v7.089  c-0.728-1.17-1.643-2.153-2.756-2.929c-4.456-3.11-10.493-1.961-12.186-1.551l-2.164-1.342c-0.47-0.292-1.086-0.146-1.377,0.323  c-0.291,0.469-0.146,1.086,0.322,1.377l2.14,1.326c0.335,1.711,1.811,7.674,6.496,10.424c1.565,0.918,3.312,1.377,5.226,1.377  c1.351,0,2.787-0.235,4.299-0.692v11.371c0,0.552,0.447,1,1,1s1-0.448,1-1v-11.346c1.485,0.443,2.895,0.667,4.224,0.667  c1.914,0,3.661-0.459,5.227-1.378c4.687-2.751,6.163-8.718,6.497-10.426l2.135-1.324c0.469-0.291,0.613-0.908,0.322-1.377  c-0.292-0.469-0.906-0.615-1.377-0.323l-2.163,1.341c-1.697-0.41-7.731-1.557-12.183,1.552c-1.072,0.748-1.966,1.682-2.682,2.796  v-6.93c1.485,0.443,2.895,0.667,4.224,0.667c1.914,0,3.661-0.459,5.227-1.378c1.823-1.07,3.152-2.629,4.125-4.233l22.828,22.828  C91.726,112.222,78.529,118,64,118C34.225,118,10,93.776,10,64z M62.956,82.866c-3.308,1.106-6.142,1.008-8.42-0.325  c-3.561-2.084-4.978-6.632-5.434-8.559c1.938-0.392,6.647-1.005,10.036,1.361C61.306,76.857,62.58,79.393,62.956,82.866z   M62.956,98.268c-3.309,1.106-6.143,1.009-8.42-0.325c-3.559-2.083-4.977-6.628-5.433-8.556c1.943-0.389,6.665-1,10.044,1.364  C61.309,92.265,62.58,94.8,62.956,98.268z M65.047,98.268c0.375-3.468,1.648-6.003,3.81-7.517c3.383-2.367,8.106-1.755,10.047-1.365  c-0.452,1.923-1.86,6.458-5.427,8.552C71.197,99.276,68.358,99.375,65.047,98.268z"/></svg>